<?xml version="1.0" standalone="no"?>
<!DOCTYPE svg PUBLIC "-//W3C//DTD SVG 20010904//EN"
 "http://www.w3.org/TR/2001/REC-SVG-20010904/DTD/svg10.dtd">
<svg version="1.0" xmlns="http://www.w3.org/2000/svg"
 width="52.000000pt" height="52.000000pt" viewBox="0 0 52.000000 52.000000"
 preserveAspectRatio="xMidYMid meet">

<g transform="translate(0.000000,52.000000) scale(0.100000,-0.100000)"
fill="#000000" stroke="none">
<path d="M137 433 c-12 -12 -7 -90 6 -102 10 -8 20 -4 42 19 l29 30 47 -53
c27 -28 48 -56 49 -60 0 -5 -21 -33 -47 -62 l-48 -54 -27 26 c-40 38 -60 26
-56 -34 l3 -48 75 -3 75 -2 78 84 c42 47 77 87 77 91 0 4 -35 44 -77 91 l-77
84 -71 0 c-40 0 -75 -3 -78 -7z"/>
</g>
</svg>
